<?xml version="1.0" standalone="no"?>
<!DOCTYPE svg PUBLIC "-//W3C//DTD SVG 20010904//EN"
 "http://www.w3.org/TR/2001/REC-SVG-20010904/DTD/svg10.dtd">
<svg version="1.0" xmlns="http://www.w3.org/2000/svg"
 width="512.000000pt" height="512.000000pt" viewBox="0 0 512.000000 512.000000"
 preserveAspectRatio="xMidYMid meet">

<g transform="translate(0.000000,512.000000) scale(0.100000,-0.100000)"
fill="#000000" stroke="none">
<path d="M1161 5104 c-149 -40 -261 -146 -312 -296 -17 -52 -20 -80 -17 -159
3 -87 7 -104 41 -172 28 -56 54 -91 102 -135 l65 -59 0 -137 0 -136 -287 0
c-258 0 -290 -2 -309 -18 -43 -34 -44 -47 -44 -402 l0 -342 34 -34 34 -34 212
0 212 0 -6 -37 c-3 -21 -13 -94 -21 -163 -8 -69 -17 -140 -20 -157 l-6 -33
-189 0 c-185 0 -189 0 -217 -24 l-28 -24 -3 -356 -3 -355 30 -33 29 -33 139
-3 139 -4 -113 -896 c-62 -494 -114 -918 -114 -943 -2 -55 12 -84 51 -104 24
-12 76 -15 282 -15 232 0 256 2 284 19 19 12 36 33 42 53 6 18 32 203 58 411
51 406 51 415 0 439 -34 15 -81 -5 -95 -40 -5 -15 -29 -175 -51 -357 -22 -181
-43 -340 -46 -352 -4 -23 -6 -23 -190 -23 l-186 0 5 33 c4 17 54 415 112 882
58 468 108 860 111 872 4 23 6 23 190 23 l186 0 -6 -38 c-16 -101 -86 -685
-86 -716 0 -46 29 -76 73 -76 56 0 67 22 88 182 10 79 18 146 19 151 0 4 544
7 1209 7 l1209 0 5 -32 c3 -18 42 -328 87 -688 45 -360 86 -668 92 -684 6 -15
25 -37 42 -47 28 -17 54 -19 284 -19 316 0 332 6 332 117 0 92 -90 756 -105
780 -31 46 -106 39 -125 -12 -7 -19 2 -121 35 -378 25 -194 45 -353 45 -354 0
-2 -83 -3 -185 -3 -183 0 -185 0 -190 22 -2 13 -52 403 -110 868 -58 465 -108
862 -111 883 l-6 37 186 0 c184 0 186 0 191 -23 2 -12 25 -188 50 -391 25
-202 50 -377 56 -387 20 -39 92 -38 121 1 18 25 18 30 -30 412 l-48 386 139 4
139 3 29 33 30 33 -3 355 -3 356 -28 24 c-28 24 -32 24 -217 24 l-189 0 -6 33
c-3 17 -12 88 -20 157 -8 69 -18 142 -21 163 l-6 37 212 0 212 0 34 34 34 34
0 341 c0 364 -3 386 -49 411 -12 6 -129 10 -305 10 l-286 0 0 136 0 137 65 59
c48 44 74 79 102 135 34 68 38 85 41 172 3 79 0 107 -17 159 -27 78 -60 132
-115 186 -136 131 -347 162 -518 75 -54 -28 -143 -113 -175 -167 -112 -190
-71 -429 97 -574 l50 -43 0 -137 0 -138 -1050 0 -1050 0 0 138 0 137 50 43
c168 145 209 384 97 574 -32 54 -121 139 -175 167 -97 49 -218 63 -321 35z
m245 -167 c178 -90 218 -318 83 -471 -79 -90 -229 -118 -342 -63 -67 34 -130
101 -151 164 -24 70 -21 168 8 228 29 64 113 140 175 160 68 22 164 14 227
-18z m2531 18 c61 -18 144 -89 175 -149 29 -57 36 -167 14 -234 -10 -28 -35
-71 -57 -96 -137 -156 -384 -128 -483 54 -59 108 -44 244 36 335 82 93 196
125 315 90z m-2577 -837 l0 -108 -85 0 -85 0 0 108 0 108 85 0 85 0 0 -108z
m2570 0 l0 -108 -85 0 -85 0 0 108 0 108 85 0 85 0 0 -108z m-2823 -518 c100
-140 183 -258 183 -262 0 -5 -65 -8 -144 -8 l-144 0 -186 259 c-102 143 -186
262 -186 265 0 4 66 5 147 4 l147 -3 183 -255z m578 8 c99 -138 184 -257 188
-265 7 -11 -27 -13 -191 -13 l-198 0 -180 253 c-99 138 -184 258 -188 265 -6
9 35 12 191 12 l198 0 180 -252z m486 -4 c101 -141 186 -261 187 -266 2 -5
-61 -7 -145 -6 l-148 3 -147 205 c-81 113 -166 231 -188 263 l-41 57 149 0
149 0 184 -256z m551 46 c81 -113 166 -231 188 -262 l41 -58 -200 0 -200 0
-186 259 c-102 143 -185 262 -185 266 0 3 89 4 197 3 l197 -3 148 -205z m513
-42 c99 -138 184 -257 188 -265 7 -11 -19 -13 -140 -13 l-148 0 -180 252 c-99
138 -184 257 -188 265 -7 11 19 13 140 13 l148 -1 180 -251z m589 -7 c102
-143 186 -262 186 -265 0 -3 -89 -6 -197 -6 l-198 1 -140 197 c-77 108 -162
227 -188 264 l-48 68 199 0 200 0 186 -259z m488 -8 l188 -263 -149 0 -149 0
-186 259 c-102 143 -186 262 -186 266 0 3 66 4 147 3 l147 -3 188 -262z m258
87 c0 -99 -2 -180 -4 -180 -4 0 -233 319 -250 348 -6 9 22 12 123 12 l131 0 0
-180z m-3760 -345 c0 -3 -58 -5 -130 -5 l-130 0 0 186 0 187 130 -182 c72
-100 130 -184 130 -186z m599 -182 c0 -16 -10 -102 -22 -193 l-22 -165 -175
-3 c-96 -1 -179 -1 -185 2 -8 3 -5 56 11 183 13 98 23 184 24 191 0 9 44 12
185 12 l185 0 -1 -27z m2169 -155 c12 -101 22 -189 22 -195 0 -10 -215 -13
-1040 -13 -825 0 -1040 3 -1040 13 0 6 10 94 22 195 l22 182 996 0 996 0 22
-182z m502 170 c1 -7 11 -93 24 -191 16 -127 19 -180 11 -183 -6 -3 -89 -3
-185 -2 l-175 3 -22 165 c-12 91 -22 177 -22 193 l-1 27 185 0 c141 0 185 -3
185 -12z m-2976 -782 c99 -139 182 -258 184 -264 3 -9 -35 -12 -140 -12 l-144
0 -185 256 c-101 141 -185 261 -187 265 -2 5 63 9 145 9 l148 -1 179 -253z
m582 2 c99 -139 184 -259 188 -265 6 -10 -35 -13 -191 -13 l-198 0 -180 252
c-99 138 -184 257 -188 265 -7 11 27 13 191 13 l198 0 180 -252z m489 -7 c102
-143 185 -262 185 -266 0 -3 -66 -4 -147 -3 l-147 3 -188 263 -188 262 150 0
149 0 186 -259z m540 62 c77 -108 162 -227 188 -265 l48 -68 -199 0 -200 0
-186 260 c-102 144 -186 263 -186 265 0 3 89 5 198 5 l197 0 140 -197z m510
-39 c94 -130 178 -250 188 -265 l19 -29 -149 0 -148 0 -140 197 c-77 108 -162
227 -188 265 l-48 68 148 0 148 0 170 -236z m599 -21 c102 -142 186 -261 186
-266 0 -4 -89 -6 -197 -5 l-197 3 -169 235 c-92 129 -177 247 -188 263 l-20
27 200 0 200 0 185 -257z m480 4 c99 -139 181 -258 184 -264 3 -10 -30 -13
-140 -13 l-144 0 -185 257 c-101 142 -185 261 -187 265 -2 5 63 8 145 7 l148
0 179 -252z m266 71 c0 -101 -4 -178 -9 -172 -10 11 -234 323 -245 342 -6 9
22 12 123 12 l131 0 0 -182z m-3872 -179 c62 -86 112 -159 112 -163 0 -3 -58
-6 -130 -6 l-130 0 0 186 c0 182 0 186 18 163 10 -13 69 -94 130 -180z m3012
-326 c0 -5 9 -78 20 -163 11 -85 20 -158 20 -162 0 -5 -535 -8 -1190 -8 -655
0 -1190 3 -1190 8 0 4 9 77 20 162 11 85 20 158 20 163 0 4 518 7 1150 7 633
0 1150 -3 1150 -7z"/>
</g>
</svg>
