<?xml version="1.0" standalone="no"?>
<!DOCTYPE svg PUBLIC "-//W3C//DTD SVG 20010904//EN"
 "http://www.w3.org/TR/2001/REC-SVG-20010904/DTD/svg10.dtd">
<svg version="1.0" xmlns="http://www.w3.org/2000/svg"
 width="512.000000pt" height="512.000000pt" viewBox="0 0 512.000000 512.000000"
 preserveAspectRatio="xMidYMid meet">

<g transform="translate(0.000000,512.000000) scale(0.100000,-0.100000)"
fill="#000000" stroke="none">
<path d="M1990 4640 l-200 -400 345 0 345 0 0 -800 0 -800 -320 0 -320 0 0
560 0 560 -80 0 -80 0 0 160 0 160 -240 0 -240 0 0 160 0 160 -80 0 -80 0 0
-160 0 -160 -80 0 -80 0 0 240 0 240 -80 0 -80 0 0 -240 0 -240 -240 0 -240 0
0 -160 0 -160 -80 0 -80 0 0 -1840 0 -1840 2480 0 2480 0 0 800 0 800 -80 0
-80 0 0 1200 0 1200 80 0 80 0 0 480 0 480 -1425 0 -1425 0 -200 -400z m668
55 c-51 -102 -95 -185 -98 -185 -3 0 -47 83 -98 185 l-92 185 190 0 190 0 -92
-185z m640 0 c-51 -102 -95 -185 -98 -185 -3 0 -47 83 -98 185 l-92 185 190 0
190 0 -92 -185z m462 -55 l0 -240 -215 0 -215 0 120 240 120 240 95 0 95 0 0
-240z m1120 -80 l0 -320 -480 0 -480 0 0 320 0 320 480 0 480 0 0 -320z
m-2542 25 l92 -185 -190 0 -190 0 92 185 c51 102 95 185 98 185 3 0 47 -83 98
-185z m640 0 l92 -185 -190 0 -190 0 92 185 c51 102 95 185 98 185 3 0 47 -83
98 -185z m782 -425 l0 -80 80 0 80 0 0 -1200 0 -1200 -1040 0 -1040 0 0 160 0
160 800 0 800 0 0 320 0 320 -400 0 -400 0 0 800 0 800 560 0 560 0 0 -80z
m960 -380 c0 -165 -1 -300 -3 -300 -1 0 -137 135 -302 300 l-300 300 303 0
302 0 0 -300z m-3200 60 l0 -80 -560 0 -560 0 0 80 0 80 560 0 560 0 0 -80z
m2862 -862 l-302 -303 0 605 0 605 302 -303 303 -302 -303 -302z m-2702 542
l0 -80 -720 0 -720 0 0 80 0 80 720 0 720 0 0 -80z m0 -1760 l0 -1520 -720 0
-720 0 0 1520 0 1520 720 0 720 0 0 -1520z m3040 718 l0 -603 -302 302 -303
303 300 300 c165 165 301 300 302 300 2 0 3 -271 3 -602z m-1440 -158 l0 -160
-720 0 -720 0 0 160 0 160 720 0 720 0 0 -160z m1105 -340 l300 -300 -303 0
-302 0 0 300 c0 165 1 300 3 300 1 0 137 -135 302 -300z m-1905 -620 l0 -160
-320 0 -320 0 0 160 0 160 320 0 320 0 0 -160z m800 0 l0 -160 -320 0 -320 0
0 160 0 160 320 0 320 0 0 -160z m800 0 l0 -160 -320 0 -320 0 0 160 0 160
320 0 320 0 0 -160z m800 0 l0 -160 -320 0 -320 0 0 160 0 160 320 0 320 0 0
-160z m-2800 -480 l0 -160 -120 0 -120 0 0 160 0 160 120 0 120 0 0 -160z
m800 0 l0 -160 -320 0 -320 0 0 160 0 160 320 0 320 0 0 -160z m800 0 l0 -160
-320 0 -320 0 0 160 0 160 320 0 320 0 0 -160z m800 0 l0 -160 -320 0 -320 0
0 160 0 160 320 0 320 0 0 -160z m400 0 l0 -160 -120 0 -120 0 0 160 0 160
120 0 120 0 0 -160z m-2400 -480 l0 -160 -320 0 -320 0 0 160 0 160 320 0 320
0 0 -160z m800 0 l0 -160 -320 0 -320 0 0 160 0 160 320 0 320 0 0 -160z m800
0 l0 -160 -320 0 -320 0 0 160 0 160 320 0 320 0 0 -160z m800 0 l0 -160 -320
0 -320 0 0 160 0 160 320 0 320 0 0 -160z"/>
<path d="M4080 4560 l0 -160 80 0 80 0 0 160 0 160 -80 0 -80 0 0 -160z"/>
<path d="M4560 4560 l0 -160 80 0 80 0 0 160 0 160 -80 0 -80 0 0 -160z"/>
<path d="M400 3040 l0 -80 80 0 80 0 0 80 0 80 -80 0 -80 0 0 -80z"/>
<path d="M720 3040 l0 -80 80 0 80 0 0 80 0 80 -80 0 -80 0 0 -80z"/>
<path d="M1040 3040 l0 -80 80 0 80 0 0 80 0 80 -80 0 -80 0 0 -80z"/>
<path d="M1360 3040 l0 -80 80 0 80 0 0 80 0 80 -80 0 -80 0 0 -80z"/>
<path d="M400 2720 l0 -80 80 0 80 0 0 80 0 80 -80 0 -80 0 0 -80z"/>
<path d="M720 2720 l0 -80 80 0 80 0 0 80 0 80 -80 0 -80 0 0 -80z"/>
<path d="M1040 2720 l0 -80 80 0 80 0 0 80 0 80 -80 0 -80 0 0 -80z"/>
<path d="M1360 2720 l0 -80 80 0 80 0 0 80 0 80 -80 0 -80 0 0 -80z"/>
<path d="M400 2400 l0 -80 80 0 80 0 0 80 0 80 -80 0 -80 0 0 -80z"/>
<path d="M720 2400 l0 -80 80 0 80 0 0 80 0 80 -80 0 -80 0 0 -80z"/>
<path d="M1040 2400 l0 -80 80 0 80 0 0 80 0 80 -80 0 -80 0 0 -80z"/>
<path d="M1360 2400 l0 -80 80 0 80 0 0 80 0 80 -80 0 -80 0 0 -80z"/>
<path d="M400 2080 l0 -80 80 0 80 0 0 80 0 80 -80 0 -80 0 0 -80z"/>
<path d="M720 2080 l0 -80 80 0 80 0 0 80 0 80 -80 0 -80 0 0 -80z"/>
<path d="M1040 2080 l0 -80 80 0 80 0 0 80 0 80 -80 0 -80 0 0 -80z"/>
<path d="M1360 2080 l0 -80 80 0 80 0 0 80 0 80 -80 0 -80 0 0 -80z"/>
<path d="M400 1760 l0 -80 80 0 80 0 0 80 0 80 -80 0 -80 0 0 -80z"/>
<path d="M720 1760 l0 -80 80 0 80 0 0 80 0 80 -80 0 -80 0 0 -80z"/>
<path d="M1040 1760 l0 -80 80 0 80 0 0 80 0 80 -80 0 -80 0 0 -80z"/>
<path d="M1360 1760 l0 -80 80 0 80 0 0 80 0 80 -80 0 -80 0 0 -80z"/>
<path d="M400 1440 l0 -80 80 0 80 0 0 80 0 80 -80 0 -80 0 0 -80z"/>
<path d="M720 1440 l0 -80 80 0 80 0 0 80 0 80 -80 0 -80 0 0 -80z"/>
<path d="M1040 1440 l0 -80 80 0 80 0 0 80 0 80 -80 0 -80 0 0 -80z"/>
<path d="M1360 1440 l0 -80 80 0 80 0 0 80 0 80 -80 0 -80 0 0 -80z"/>
<path d="M400 1120 l0 -80 80 0 80 0 0 80 0 80 -80 0 -80 0 0 -80z"/>
<path d="M720 1120 l0 -80 80 0 80 0 0 80 0 80 -80 0 -80 0 0 -80z"/>
<path d="M1040 1120 l0 -80 80 0 80 0 0 80 0 80 -80 0 -80 0 0 -80z"/>
<path d="M1360 1120 l0 -80 80 0 80 0 0 80 0 80 -80 0 -80 0 0 -80z"/>
<path d="M400 800 l0 -80 80 0 80 0 0 80 0 80 -80 0 -80 0 0 -80z"/>
<path d="M720 800 l0 -80 80 0 80 0 0 80 0 80 -80 0 -80 0 0 -80z"/>
<path d="M1040 800 l0 -80 80 0 80 0 0 80 0 80 -80 0 -80 0 0 -80z"/>
<path d="M1360 800 l0 -80 80 0 80 0 0 80 0 80 -80 0 -80 0 0 -80z"/>
<path d="M400 480 l0 -80 80 0 80 0 0 80 0 80 -80 0 -80 0 0 -80z"/>
<path d="M720 480 l0 -80 80 0 80 0 0 80 0 80 -80 0 -80 0 0 -80z"/>
<path d="M1040 480 l0 -80 80 0 80 0 0 80 0 80 -80 0 -80 0 0 -80z"/>
<path d="M1360 480 l0 -80 80 0 80 0 0 80 0 80 -80 0 -80 0 0 -80z"/>
</g>
</svg>
