<svg id="visual" viewBox="0 0 960 540" width="960" height="540" xmlns="http://www.w3.org/2000/svg" xmlns:xlink="http://www.w3.org/1999/xlink" version="1.1"><rect x="0" y="0" width="960" height="540" fill="#000000"></rect><path d="M0 285L17.8 281.7C35.7 278.3 71.3 271.7 106.8 267.5C142.3 263.3 177.7 261.7 213.2 261.8C248.7 262 284.3 264 320 272.3C355.7 280.7 391.3 295.3 426.8 298.2C462.3 301 497.7 292 533.2 289.5C568.7 287 604.3 291 640 290.8C675.7 290.7 711.3 286.3 746.8 282.3C782.3 278.3 817.7 274.7 853.2 277.8C888.7 281 924.3 291 942.2 296L960 301L960 541L942.2 541C924.3 541 888.7 541 853.2 541C817.7 541 782.3 541 746.8 541C711.3 541 675.7 541 640 541C604.3 541 568.7 541 533.2 541C497.7 541 462.3 541 426.8 541C391.3 541 355.7 541 320 541C284.3 541 248.7 541 213.2 541C177.7 541 142.3 541 106.8 541C71.3 541 35.7 541 17.8 541L0 541Z" fill="#000000"></path><path d="M0 308L17.8 309.3C35.7 310.7 71.3 313.3 106.8 320.7C142.3 328 177.7 340 213.2 340C248.7 340 284.3 328 320 324.3C355.7 320.7 391.3 325.3 426.8 321C462.3 316.7 497.7 303.3 533.2 298.2C568.7 293 604.3 296 640 300.7C675.7 305.3 711.3 311.7 746.8 311.7C782.3 311.7 817.7 305.3 853.2 300C888.7 294.7 924.3 290.3 942.2 288.2L960 286L960 541L942.2 541C924.3 541 888.7 541 853.2 541C817.7 541 782.3 541 746.8 541C711.3 541 675.7 541 640 541C604.3 541 568.7 541 533.2 541C497.7 541 462.3 541 426.8 541C391.3 541 355.7 541 320 541C284.3 541 248.7 541 213.2 541C177.7 541 142.3 541 106.8 541C71.3 541 35.7 541 17.8 541L0 541Z" fill="#4c0000"></path><path d="M0 341L17.8 340.5C35.7 340 71.3 339 106.8 345C142.3 351 177.7 364 213.2 367C248.7 370 284.3 363 320 357.8C355.7 352.7 391.3 349.3 426.8 343.8C462.3 338.3 497.7 330.7 533.2 329.2C568.7 327.7 604.3 332.3 640 330.3C675.7 328.3 711.3 319.7 746.8 319.3C782.3 319 817.7 327 853.2 328.7C888.7 330.3 924.3 325.7 942.2 323.3L960 321L960 541L942.2 541C924.3 541 888.7 541 853.2 541C817.7 541 782.3 541 746.8 541C711.3 541 675.7 541 640 541C604.3 541 568.7 541 533.2 541C497.7 541 462.3 541 426.8 541C391.3 541 355.7 541 320 541C284.3 541 248.7 541 213.2 541C177.7 541 142.3 541 106.8 541C71.3 541 35.7 541 17.8 541L0 541Z" fill="#5c0000"></path><path d="M0 397L17.8 392.5C35.7 388 71.3 379 106.8 373.3C142.3 367.7 177.7 365.3 213.2 365.3C248.7 365.3 284.3 367.7 320 369C355.7 370.3 391.3 370.7 426.8 368.3C462.3 366 497.7 361 533.2 360.7C568.7 360.3 604.3 364.7 640 370.7C675.7 376.7 711.3 384.3 746.8 389.7C782.3 395 817.7 398 853.2 394.2C888.7 390.3 924.3 379.7 942.2 374.3L960 369L960 541L942.2 541C924.3 541 888.7 541 853.2 541C817.7 541 782.3 541 746.8 541C711.3 541 675.7 541 640 541C604.3 541 568.7 541 533.2 541C497.7 541 462.3 541 426.8 541C391.3 541 355.7 541 320 541C284.3 541 248.7 541 213.2 541C177.7 541 142.3 541 106.8 541C71.3 541 35.7 541 17.8 541L0 541Z" fill="#6d0000"></path><path d="M0 399L17.8 395.7C35.7 392.3 71.3 385.7 106.8 383.3C142.3 381 177.7 383 213.2 390.8C248.7 398.7 284.3 412.3 320 409.7C355.7 407 391.3 388 426.8 381.3C462.3 374.7 497.7 380.3 533.2 390C568.7 399.7 604.3 413.3 640 414.8C675.7 416.3 711.3 405.7 746.8 403.8C782.3 402 817.7 409 853.2 414.2C888.7 419.3 924.3 422.7 942.2 424.3L960 426L960 541L942.2 541C924.3 541 888.7 541 853.2 541C817.7 541 782.3 541 746.8 541C711.3 541 675.7 541 640 541C604.3 541 568.7 541 533.2 541C497.7 541 462.3 541 426.8 541C391.3 541 355.7 541 320 541C284.3 541 248.7 541 213.2 541C177.7 541 142.3 541 106.8 541C71.3 541 35.7 541 17.8 541L0 541Z" fill="#7f0000"></path><path d="M0 421L17.8 425C35.7 429 71.3 437 106.8 438C142.3 439 177.7 433 213.2 426.8C248.7 420.7 284.3 414.3 320 410.7C355.7 407 391.3 406 426.8 407.2C462.3 408.3 497.7 411.7 533.2 414.8C568.7 418 604.3 421 640 419.2C675.7 417.3 711.3 410.7 746.8 406C782.3 401.3 817.7 398.7 853.2 403.8C888.7 409 924.3 422 942.2 428.5L960 435L960 541L942.2 541C924.3 541 888.7 541 853.2 541C817.7 541 782.3 541 746.8 541C711.3 541 675.7 541 640 541C604.3 541 568.7 541 533.2 541C497.7 541 462.3 541 426.8 541C391.3 541 355.7 541 320 541C284.3 541 248.7 541 213.2 541C177.7 541 142.3 541 106.8 541C71.3 541 35.7 541 17.8 541L0 541Z" fill="#8e0001"></path><path d="M0 435L17.8 436.8C35.7 438.7 71.3 442.3 106.8 441.2C142.3 440 177.7 434 213.2 431.8C248.7 429.7 284.3 431.3 320 434.7C355.7 438 391.3 443 426.8 442.8C462.3 442.7 497.7 437.3 533.2 441.7C568.7 446 604.3 460 640 460C675.7 460 711.3 446 746.8 445.7C782.3 445.3 817.7 458.7 853.2 465.3C888.7 472 924.3 472 942.2 472L960 472L960 541L942.2 541C924.3 541 888.7 541 853.2 541C817.7 541 782.3 541 746.8 541C711.3 541 675.7 541 640 541C604.3 541 568.7 541 533.2 541C497.7 541 462.3 541 426.8 541C391.3 541 355.7 541 320 541C284.3 541 248.7 541 213.2 541C177.7 541 142.3 541 106.8 541C71.3 541 35.7 541 17.8 541L0 541Z" fill="#9d0002"></path><path d="M0 475L17.8 474.2C35.7 473.3 71.3 471.7 106.8 471.5C142.3 471.3 177.7 472.7 213.2 473.7C248.7 474.7 284.3 475.3 320 477.7C355.7 480 391.3 484 426.8 483C462.3 482 497.7 476 533.2 472.8C568.7 469.7 604.3 469.3 640 470.3C675.7 471.3 711.3 473.7 746.8 476.5C782.3 479.3 817.7 482.7 853.2 486.5C888.7 490.3 924.3 494.7 942.2 496.8L960 499L960 541L942.2 541C924.3 541 888.7 541 853.2 541C817.7 541 782.3 541 746.8 541C711.3 541 675.7 541 640 541C604.3 541 568.7 541 533.2 541C497.7 541 462.3 541 426.8 541C391.3 541 355.7 541 320 541C284.3 541 248.7 541 213.2 541C177.7 541 142.3 541 106.8 541C71.3 541 35.7 541 17.8 541L0 541Z" fill="#ac0001"></path><path d="M0 523L17.8 522.5C35.7 522 71.3 521 106.8 520.7C142.3 520.3 177.7 520.7 213.2 516C248.7 511.3 284.3 501.7 320 502.5C355.7 503.3 391.3 514.7 426.8 516.8C462.3 519 497.7 512 533.2 510.8C568.7 509.7 604.3 514.3 640 514.5C675.7 514.7 711.3 510.3 746.8 508C782.3 505.7 817.7 505.3 853.2 507C888.7 508.7 924.3 512.3 942.2 514.2L960 516L960 541L942.2 541C924.3 541 888.7 541 853.2 541C817.7 541 782.3 541 746.8 541C711.3 541 675.7 541 640 541C604.3 541 568.7 541 533.2 541C497.7 541 462.3 541 426.8 541C391.3 541 355.7 541 320 541C284.3 541 248.7 541 213.2 541C177.7 541 142.3 541 106.8 541C71.3 541 35.7 541 17.8 541L0 541Z" fill="#bc0000"></path></svg>